<?xml version="1.0" standalone="no"?>
<!DOCTYPE svg PUBLIC "-//W3C//DTD SVG 20010904//EN"
 "http://www.w3.org/TR/2001/REC-SVG-20010904/DTD/svg10.dtd">
<svg version="1.0" xmlns="http://www.w3.org/2000/svg"
 width="640.000000pt" height="640.000000pt" viewBox="0 0 640.000000 640.000000"
 preserveAspectRatio="xMidYMid meet">

<g transform="translate(0.000000,640.000000) scale(0.100000,-0.100000)"
fill="#000000" stroke="none">
<path d="M1260 6358 c-441 -331 -701 -737 -784 -1222 -17 -95 -12 -120 25
-131 22 -7 27 -4 234 141 l80 56 -70 -63 c-163 -147 -250 -255 -329 -409 -95
-186 -133 -350 -123 -534 5 -110 41 -278 62 -300 12 -12 10 -30 -12 -119 -27
-114 -26 -145 6 -128 11 7 24 31 31 61 8 34 22 58 42 75 l29 25 60 -48 c37
-29 58 -53 55 -62 -2 -8 -27 -91 -56 -185 -28 -93 -85 -300 -126 -460 -41
-159 -106 -400 -145 -535 -86 -304 -106 -398 -124 -569 -19 -177 -19 -255 -1
-270 27 -23 68 -9 90 30 22 38 207 268 217 269 3 0 11 -57 18 -127 16 -171 45
-307 88 -423 50 -133 70 -170 93 -170 19 0 24 9 34 70 4 19 17 52 30 73 l24
38 56 -103 c98 -179 150 -232 192 -198 7 7 14 27 14 44 0 32 88 375 100 389 8
9 101 -198 215 -478 42 -104 83 -197 91 -205 14 -13 17 -13 30 4 10 15 14 50
14 131 0 62 3 152 6 202 l7 90 67 -76 c37 -42 102 -109 146 -149 90 -83 244
-252 244 -268 0 -5 -37 -48 -81 -95 -74 -77 -139 -178 -139 -217 0 -7 -8 -15
-17 -19 -184 -63 -304 -144 -401 -270 -41 -54 -122 -194 -122 -213 0 -6 23
-10 54 -10 l53 0 39 67 c59 103 180 224 269 270 41 21 76 35 79 32 6 -6 -40
-302 -54 -342 l-9 -27 54 0 c30 0 57 5 60 10 4 6 20 92 36 192 49 302 65 347
161 443 73 73 233 262 278 329 l32 48 66 -4 c36 -2 67 -9 69 -15 3 -8 13 -9
31 -2 15 5 60 15 101 23 l74 14 -8 -156 c-4 -87 -9 -160 -12 -164 -7 -12 -42
-9 -66 6 -16 10 -31 11 -55 4 l-33 -9 7 -69 c6 -64 5 -71 -15 -87 -18 -15 -24
-35 -31 -108 -11 -105 -13 -256 -3 -372 l6 -83 48 0 49 0 1 133 c0 74 10 203
22 297 l22 164 30 8 c17 4 49 12 71 18 31 8 44 17 52 38 7 16 15 190 20 430 5
222 12 405 14 407 3 3 56 -19 119 -49 63 -30 159 -69 214 -87 93 -31 109 -34
225 -33 155 1 269 29 438 109 63 31 117 53 119 51 10 -10 23 -761 14 -787 -15
-43 11 -67 94 -88 l70 -17 33 -275 c18 -151 35 -284 38 -297 4 -21 9 -23 62
-20 l57 3 3 267 c3 294 2 298 -59 298 -20 0 -29 5 -29 16 0 11 6 15 20 11 23
-6 33 20 28 73 -3 30 -8 35 -57 52 -50 16 -57 17 -78 2 -45 -29 -59 -12 -66
79 -11 137 -9 237 6 237 6 0 61 -9 120 -19 76 -14 118 -16 140 -10 18 5 57 9
89 9 53 0 58 -2 79 -33 46 -66 197 -245 280 -332 73 -78 89 -100 107 -155 29
-90 47 -172 71 -332 12 -75 24 -143 27 -152 5 -12 20 -16 61 -16 49 0 54 2 48
18 -4 9 -16 71 -26 137 -10 66 -21 132 -25 147 -8 39 5 35 69 -17 77 -62 152
-149 194 -223 l35 -62 59 0 59 0 -26 53 c-77 152 -200 291 -323 363 -42 24
-81 44 -87 44 -7 0 -20 24 -30 53 -29 91 -54 128 -148 227 -50 52 -117 128
-150 168 l-58 72 163 168 164 168 6 -208 c6 -214 13 -249 43 -218 8 8 66 141
129 295 139 337 167 399 177 388 12 -13 79 -282 86 -345 8 -72 28 -93 56 -58
30 37 92 148 123 220 16 36 32 69 35 73 9 11 109 -120 116 -152 10 -47 14 -53
31 -49 26 5 66 86 113 225 41 125 63 238 75 401 4 50 10 92 14 91 15 -1 201
-239 201 -256 0 -49 77 -69 95 -26 5 10 10 77 13 149 6 173 -11 275 -98 584
-38 135 -85 315 -105 400 -100 434 -120 515 -157 630 -45 139 -120 323 -181
445 l-40 80 12 80 c19 118 25 415 12 536 -51 463 -168 880 -380 1359 -50 113
-119 257 -154 320 l-63 115 -1815 2 -1814 2 -55 -41z m1390 -366 c0 -7 -142
-96 -172 -108 -39 -14 -14 9 65 61 78 51 107 64 107 47z m1428 -792 c44 -146
90 -301 102 -345 12 -44 23 -87 26 -95 3 -13 -8 -14 -68 -12 -156 8 -363 -32
-494 -94 -77 -36 -114 -72 -114 -109 0 -47 57 -46 264 4 177 44 291 57 389 47
l64 -7 32 -162 c35 -182 62 -349 57 -354 -1 -2 -30 9 -62 24 -54 26 -69 28
-179 28 -114 0 -123 -2 -185 -31 -108 -53 -196 -159 -250 -302 -26 -68 -36
-161 -19 -166 229 -69 608 -51 753 35 19 11 37 26 40 34 3 8 13 15 21 15 11 0
15 6 12 18 -3 9 -8 34 -12 55 -5 34 -4 37 17 37 13 0 41 9 63 20 21 11 41 18
43 15 2 -2 7 -43 10 -90 5 -88 17 -110 45 -87 7 6 26 63 42 126 16 63 31 113
34 111 2 -3 7 -53 11 -112 6 -89 5 -111 -8 -125 -32 -38 13 -65 51 -31 18 17
19 17 13 -17 -18 -99 -76 -499 -82 -558 -6 -56 -63 -302 -129 -547 -52 -197
-73 -240 -191 -391 -189 -242 -660 -581 -923 -665 -98 -31 -236 -47 -319 -37
-143 17 -433 144 -632 276 -196 130 -405 330 -538 514 -68 95 -75 111 -131
308 -37 129 -51 184 -86 338 -9 37 -22 90 -30 117 -35 120 -95 503 -116 738
l-13 137 94 95 c52 52 95 93 97 92 1 -2 -18 -58 -42 -125 -64 -174 -92 -291
-74 -303 8 -5 17 -9 21 -9 4 0 49 50 100 111 75 91 95 109 112 105 12 -3 31
-6 44 -6 16 0 21 -4 16 -12 -4 -7 -11 -32 -14 -55 -5 -33 -4 -43 7 -43 7 0 16
-6 19 -14 7 -19 88 -61 153 -80 84 -25 291 -38 420 -27 62 6 116 13 122 17 5
3 31 9 57 13 l47 7 -3 53 c-1 29 -11 75 -22 103 l-19 50 98 141 c121 175 356
539 481 747 107 178 119 194 91 125 -12 -28 -79 -200 -150 -383 -98 -251 -139
-345 -166 -377 -40 -49 -42 -57 -19 -76 15 -12 21 -9 51 26 122 139 440 596
589 848 86 144 217 396 269 519 16 37 30 66 31 65 1 -1 38 -121 82 -267z
m-985 -367 c-62 -192 -134 -381 -212 -563 -68 -159 -176 -370 -189 -370 -4 0
-16 15 -26 34 -26 48 -103 121 -164 154 l-52 29 82 94 c46 52 121 140 167 197
73 89 88 102 115 102 55 0 65 18 45 76 -3 9 268 384 277 384 1 0 -18 -62 -43
-137z m-627 -256 c5 -15 -60 -209 -118 -348 l-39 -96 -64 -5 c-37 -3 -86 -16
-120 -32 -32 -14 -59 -25 -60 -24 -2 2 46 70 105 151 59 81 141 197 181 257
71 105 102 131 115 97z m2093 -427 c12 -123 20 -224 18 -225 -1 0 -21 -10 -43
-23 -23 -12 -56 -22 -74 -22 -30 0 -31 1 -25 33 4 17 12 34 17 36 6 2 24 16
41 31 37 33 32 65 -8 58 -14 -3 -25 -5 -25 -4 0 0 16 75 35 166 19 91 35 169
35 174 0 5 2 7 4 5 3 -3 14 -105 25 -229z m-2275 -65 c-4 -8 -18 -18 -33 -21
-14 -3 -48 -12 -75 -19 -71 -20 -97 -3 -36 23 66 29 72 30 112 31 29 1 36 -2
32 -14z m1971 -13 c71 -33 41 -46 -50 -22 -118 31 -212 23 -328 -28 -26 -11
-47 -19 -47 -17 0 12 78 61 123 76 77 27 234 22 302 -9z m-1748 -21 c21 -10
46 -28 56 -39 16 -18 13 -17 -30 5 -26 13 -67 29 -91 35 -33 8 -40 13 -31 24
12 14 29 10 96 -25z m-439 -59 c2 -7 -5 -12 -17 -12 -14 0 -19 5 -14 15 6 17
25 15 31 -3z m2282 -2 c0 -5 -4 -10 -10 -10 -5 0 -10 5 -10 10 0 6 5 10 10 10
6 0 10 -4 10 -10z m-2162 -27 c-2 -5 -11 -24 -20 -43 -9 -19 -28 -46 -42 -59
-40 -37 -34 -68 12 -62 6 1 12 -5 12 -14 0 -30 40 -93 81 -129 24 -20 40 -36
37 -36 -31 0 -167 33 -208 51 l-52 22 5 43 c6 60 70 169 119 204 39 29 64 39
56 23z m2083 -27 c52 -39 119 -158 119 -211 0 -29 -5 -34 -47 -53 -45 -18
-101 -33 -182 -46 l-35 -6 42 36 c24 20 52 53 62 75 27 52 27 142 0 194 -11
22 -20 41 -20 42 0 10 23 -1 61 -31z m-121 10 c6 -8 10 -25 8 -38 -2 -18 -9
-23 -33 -23 -24 0 -31 5 -33 23 -4 25 13 52 33 52 7 0 18 -7 25 -14z m950 -7
c43 -27 53 -39 94 -119 53 -105 61 -148 60 -320 -1 -141 -4 -166 -33 -275 -77
-289 -190 -476 -353 -585 -46 -31 -70 -40 -102 -40 -70 0 -72 6 -48 105 11 48
23 89 26 93 3 3 17 -4 29 -16 21 -20 37 -21 37 -1 0 4 -12 22 -27 39 l-26 32
16 72 c9 39 19 98 22 131 4 33 11 88 17 122 9 57 12 62 39 68 16 4 31 11 35
16 3 6 -2 52 -12 104 -15 81 -16 105 -5 182 14 103 34 131 98 140 35 4 45 1
76 -27 24 -21 42 -48 50 -78 16 -55 37 -67 37 -22 0 65 -66 149 -130 163 -14
3 -43 -1 -65 -8 -21 -8 -40 -13 -41 -12 -4 5 28 185 37 209 20 49 109 63 169
27z m-2792 -30 c-3 -25 -27 -35 -55 -25 -14 6 -12 11 12 36 31 32 49 28 43
-11z m-298 14 c11 -10 -44 -43 -72 -43 l-30 0 24 30 c18 23 29 28 48 24 14 -3
27 -8 30 -11z m625 -116 c-12 -42 -10 -52 13 -55 25 -4 42 -36 42 -81 0 -26
-4 -29 -57 -40 -31 -6 -85 -11 -120 -11 l-63 0 41 37 c60 54 83 105 83 182 l0
64 34 -37 c25 -28 32 -43 27 -59z m1189 55 c-12 -74 32 -171 100 -221 l31 -23
-95 5 c-52 3 -108 10 -124 16 -27 11 -28 14 -22 57 8 61 36 122 76 167 17 20
34 37 36 37 2 0 2 -17 -2 -38z m-2325 -149 c1 -10 -5 -10 -24 -1 -24 11 -24
12 -8 30 17 19 18 19 24 1 4 -10 8 -24 8 -30z m-198 -56 c-31 -65 -42 -132
-19 -125 7 3 16 19 20 36 5 18 13 32 19 32 6 0 30 21 53 47 44 48 66 53 108
21 27 -20 54 -243 39 -317 -16 -77 -14 -91 12 -100 19 -7 26 -27 54 -157 17
-82 37 -171 43 -197 12 -47 11 -50 -15 -77 -18 -19 -25 -35 -21 -46 6 -15 9
-15 31 6 14 13 27 22 28 19 2 -2 13 -42 25 -89 24 -98 20 -110 -40 -110 -52 0
-104 28 -178 97 -111 102 -184 224 -245 406 -49 147 -75 288 -75 405 l0 100
48 28 c26 15 67 42 91 61 24 18 46 31 49 29 2 -3 -10 -34 -27 -69z m3551 -347
c3 -20 0 -30 -9 -30 -13 0 -18 41 -6 53 10 10 10 9 15 -23z m-2872 -2025 c12
-38 41 -106 62 -149 l40 -79 -23 -31 c-42 -58 -122 -156 -128 -156 -8 0 -24
26 -64 107 -34 66 -35 73 -47 256 -7 103 -11 190 -8 192 2 2 27 -35 56 -83
l52 -87 1 130 1 130 17 -80 c9 -44 28 -111 41 -150z m2342 21 c15 27 39 67 53
89 l26 40 -6 -105 c-3 -58 -8 -135 -11 -172 l-7 -67 -26 13 c-14 8 -45 17 -69
21 -33 5 -42 10 -38 23 8 25 36 249 38 302 1 25 4 -9 8 -74 l5 -120 27 50z
m-1899 -99 c23 -72 22 -74 -19 -81 -19 -4 -42 -10 -51 -13 -12 -5 -14 -1 -8
18 13 49 48 129 54 129 4 0 15 -24 24 -53z"/>
<path d="M2680 2533 c-50 -26 -80 -76 -80 -133 0 -47 11 -62 38 -53 6 3 12 16
12 29 l0 24 38 -24 c107 -69 334 -91 663 -65 165 13 260 30 339 63 50 20 62
22 67 10 7 -19 42 -18 50 2 7 18 -23 87 -48 110 -10 9 -33 17 -51 17 -29 2
-33 -1 -33 -23 0 -17 7 -26 25 -31 24 -6 24 -7 -12 -23 -58 -25 -136 -43 -245
-57 -133 -16 -511 -17 -588 -1 -69 14 -187 70 -179 84 4 6 22 17 41 24 26 12
34 20 31 37 -4 28 -25 31 -68 10z"/>
<path d="M2965 2100 c-3 -6 0 -12 7 -14 7 -3 37 -12 67 -22 41 -13 74 -15 135
-11 111 8 186 25 186 43 0 8 -1 14 -2 14 -2 0 -38 -7 -81 -15 -100 -19 -183
-19 -237 0 -50 18 -67 19 -75 5z"/>
</g>
</svg>
